<?xml version="1.0" encoding="UTF-8"?>
<svg version="1.1" xmlns="http://www.w3.org/2000/svg" width="867" height="1215">
<path d="M0 0 C0.9548048 -0.00230769 1.90960961 -0.00461538 2.89334789 -0.006993 C6.07517656 -0.01226359 9.25680055 -0.00333342 12.43861866 0.00558662 C14.74975135 0.00471396 17.06088385 0.00296185 19.3720153 0.00040829 C25.70926607 -0.00405718 32.04644905 0.00392751 38.38369119 0.01396441 C44.51992044 0.0227054 50.65615039 0.02004255 56.79238396 0.01860073 C69.33971062 0.01597698 81.88701615 0.02264035 94.43433666 0.03463554 C106.8539557 0.04647816 119.27356593 0.05416917 131.69319057 0.05634117 C132.85242863 0.05654739 132.85242863 0.05654739 134.03508563 0.05675778 C137.96003214 0.05743446 141.88497865 0.05803722 145.80992518 0.05861153 C173.59500123 0.06280998 201.3800658 0.0762781 229.16513538 0.09521675 C256.15439258 0.11359171 283.14364662 0.12775595 310.13290882 0.13623238 C310.96514523 0.13649543 311.79738164 0.13675848 312.65483734 0.1370295 C321.01265866 0.13966659 329.37048 0.14221821 337.72830136 0.14470722 C354.7534549 0.14977936 371.77860824 0.15542187 388.80376148 0.16140938 C389.58651411 0.16168396 390.36926674 0.16195854 391.17573915 0.16224144 C443.42782463 0.18063619 495.67990352 0.21236748 547.93198109 0.24609566 C545.14249229 2.10575485 542.57965567 3.14941971 539.43637562 4.24975777 C532.21419269 6.78108237 526.05212004 9.57147524 519.93198109 14.24609566 C514.37460331 18.46434626 509.30738649 21.5905539 502.74448109 24.05859566 C495.49301203 27.01725782 492.73305152 30.6089934 488.93198109 37.24609566 C487.75721534 38.88032535 486.56958008 40.50537797 485.36948109 42.12109566 C481.57748052 47.52490855 478.7898954 53.31167302 475.93198109 59.24609566 C473.4831323 64.30937375 470.68876549 68.63285201 467.11508656 72.99560738 C450.19496402 93.66294615 440.1977939 121.1154437 441.12265491 147.95263863 C441.4258457 158.71528769 439.06896804 168.3990607 436.51743031 178.80322456 C432.10325382 197.22201102 430.39310463 221.46293204 439.90073109 238.60547066 C442.14333411 242.17324819 444.14573094 244.75687334 447.74448109 246.99609566 C449.93198109 249.24609566 449.93198109 249.24609566 450.09604359 251.17968941 C449.69561662 255.16324733 448.76303092 259.01263735 447.89511585 262.91528511 C447.71481327 263.72617088 447.53451069 264.53705666 447.34874439 265.37251472 C447.2112125 265.99079643 447.07368061 266.60907814 446.93198109 267.24609566 C439.29050191 268.45536633 431.64888285 269.66375028 424.0071764 270.87158394 C421.42023181 271.2805706 418.83331662 271.68974323 416.24643421 272.099123 C409.95419114 273.09482398 403.66149218 274.08740785 397.3677721 275.07373238 C392.48515553 275.83968456 387.60599527 276.62380212 382.72861195 277.42236519 C361.21342612 280.90835222 361.21342612 280.90835222 350.24448109 280.62109566 C349.11494007 280.60530464 347.98539906 280.58951363 346.82162952 280.57324409 C343.18939781 280.50276351 339.56225722 280.38402047 335.93198109 280.24609566 C334.61310902 280.19678902 333.29423695 280.14748238 331.93539906 280.09668159 C312.37343749 279.30875465 294.76718168 278.18417493 277.39365101 268.33178902 C271.89922018 265.31153669 267.14875704 264.55634661 260.93198109 264.24609566 C259.43192739 264.07991294 257.93191906 263.91331965 256.43198109 263.74609566 C251.32609247 263.76420165 248.17063554 266.43892889 244.29135609 269.51953316 C241.93198109 271.24609566 241.93198109 271.24609566 239.35776234 272.19922066 C236.3578608 273.49386415 235.2584101 274.98273078 233.36948109 277.62109566 C229.75490856 282.6130457 226.91645444 286.26865491 220.93198109 288.24609566 C213.99187841 288.86104146 207.05093279 288.12757156 200.15414906 287.33081245 C187.88117936 285.94866678 177.10408456 285.91160352 165.91244984 291.84765816 C160.53425467 294.37111015 154.78450829 294.00808882 148.93198109 294.24609566 C147.74733265 294.36855659 146.56268421 294.49101753 145.34213734 294.61718941 C141.99988086 294.86604012 139.20757989 294.97037214 135.93198109 294.24609566 C134.10554147 292.21220857 133.09130206 290.12819429 131.85385609 287.69531441 C128.73582375 283.72172442 124.40213191 282.4274538 119.75497913 280.71850777 C116.19480926 279.37967315 114.18193366 278.50806518 111.49448109 275.69140816 C107.98056883 272.33819311 104.65125248 271.84512155 99.99448109 270.87109566 C92.21419982 269.05649652 85.62890532 266.50150267 78.61948109 262.69922066 C73.17300915 259.75432595 68.01055814 259.59998117 61.93198109 260.24609566 C59.28852194 261.3092785 57.32071053 262.6373595 54.93198109 264.24609566 C51.73642389 265.34267634 48.91089573 265.26201644 45.55698109 265.12109566 C39.30719238 265.0878521 35.94661835 266.32973339 31.36948109 270.68359566 C29.09545299 273.57650482 27.92651206 276.63417451 26.61948109 280.05859566 C24.94832075 284.31483215 23.27977752 287.31883278 20.11948109 290.62109566 C9.25562565 301.99836581 3.40804105 316.76790588 3.57968616 332.44482613 C3.70887286 336.34673423 4.21484125 339.95684957 5.11948109 343.74609566 C6.33780893 349.2915879 5.3394714 354.05632017 4.10068226 359.50195503 C3.11269769 363.85323328 2.8732829 367.79570557 2.93198109 372.24609566 C2.46791859 374.16422066 2.46791859 374.16422066 1.99448109 376.12109566 C-0.22492051 385.4138419 -1.23685524 396.13934095 1.45541859 405.38281441 C2.20589726 408.317063 1.99338405 411.23735024 1.93198109 414.24609566 C2.26198109 414.90609566 2.59198109 415.56609566 2.93198109 416.24609566 C3.20507623 418.77330944 3.37755285 421.3002069 3.55307484 423.83593941 C3.79975187 426.50139593 3.79975187 426.50139593 5.93198109 429.24609566 C7.45220985 437.7667327 7.90824271 448.29357241 3.93198109 456.24609566 C3.802423 457.89408911 3.72953667 459.54671878 3.68588734 461.19922066 C3.63839344 462.70681953 3.63839344 462.70681953 3.58994007 464.24487495 C3.55843861 465.31777779 3.52693714 466.39068062 3.49448109 467.49609566 C3.25925398 474.37966379 2.9660784 481.13005878 1.86948109 487.93359566 C-2.70826843 516.60476371 5.08117716 548.78610749 17.89975452 574.43237495 C20.81676128 580.49700652 22.65413223 586.70485585 24.43198109 593.18359566 C26.52703219 600.79250866 28.83890034 608.09452855 32.05698109 615.30859566 C32.36957874 616.01556587 32.6821764 616.72253609 33.00424671 617.45092964 C37.22877619 626.56255181 41.4281246 631.57199422 50.93198109 635.24609566 C57.29395628 637.36675406 63.73450176 638.61259487 70.33823109 639.70703316 C72.75403628 640.20911315 74.7834285 640.93544132 77.05698109 641.87109566 C81.5564299 643.47979151 85.89225658 643.54147168 90.61948109 643.55859566 C91.34473988 643.56391304 92.06999866 643.56923042 92.81723499 643.57470894 C97.26623532 643.51647862 100.77200317 642.73533478 104.93198109 641.24609566 C106.79878654 640.91970323 108.66614597 640.59478931 110.5396471 640.30932808 C120.15650287 638.81611424 128.73572643 636.06735356 136.11948109 629.44140816 C140.48077577 625.61098157 145.35456989 622.82227508 150.36948109 619.93359566 C151.33796986 619.36818062 152.30645863 618.80276558 153.30429554 618.22021675 C159.69062469 614.50351772 166.1204557 610.86719547 172.58163929 607.28247261 C176.33356209 605.18911053 179.96518732 602.97739578 183.55698109 600.62109566 C189.17118216 596.9789981 195.07208856 594.05649676 201.08969593 591.14306831 C204.25883961 589.60007416 207.40657833 588.01440125 210.55698109 586.43359566 C214.01531442 584.70442899 217.47364775 582.97526232 220.93198109 581.24609566 C227.09756846 601.01224342 225.88026357 623.62344487 224.08823109 644.00781441 C223.90810598 647.74090725 224.10301067 651.39965341 224.36948109 655.12109566 C227.73292241 702.66542715 227.73292241 702.66542715 219.93198109 717.24609566 C215.48487208 722.24702679 210.06144716 726.16389367 204.72690296 730.16601753 C193.06061892 739.31282239 191.19521644 754.89799687 189.22885609 768.83203316 C188.53426817 776.81979425 189.17112255 783.71340218 191.11948109 791.49609566 C191.34579212 792.42140083 191.57210316 793.34670601 191.8052721 794.30005074 C193.33601554 800.36735146 195.21032929 806.14654417 197.61557484 811.92968941 C198.94735536 815.28482787 200.06658935 818.66050527 201.16440296 822.09716988 C204.81518213 834.00685059 204.81518213 834.00685059 211.76401234 844.17968941 C217.55894365 850.42310828 217.97841601 856.15180568 218.15463734 864.35547066 C217.94956624 867.93881822 217.45862773 870.06418378 215.93198109 873.24609566 C215.24518166 875.57358259 214.57437066 877.90596222 213.93198109 880.24609566 C213.27198109 880.24609566 212.61198109 880.24609566 211.93198109 880.24609566 C211.66385609 880.94734566 211.39573109 881.64859566 211.11948109 882.37109566 C210.72760609 883.31984566 210.33573109 884.26859566 209.93198109 885.24609566 C209.60198109 886.17422066 209.27198109 887.10234566 208.93198109 888.05859566 C206.46145841 891.99599117 203.52454923 894.12929341 199.86166859 896.93750191 C185.18615313 908.50180809 172.51096921 922.65697197 160.93198109 937.24609566 C160.02600954 938.35025898 159.11836085 939.45304764 158.20932484 940.55468941 C138.8183744 964.18953788 123.29520244 989.9703728 109.51138783 1017.17222786 C106.97197516 1022.18188849 104.37333456 1027.1579321 101.74448109 1032.12109566 C97.60248341 1039.96158182 93.4974456 1047.8209438 89.40097523 1055.68530464 C87.02100651 1060.25167078 84.63570005 1064.81492232 82.22885609 1069.36718941 C81.58303577 1070.58922066 81.58303577 1070.58922066 80.92416859 1071.83593941 C80.1445126 1073.30944018 79.36347282 1074.78221048 78.58041859 1076.25390816 C71.53318667 1089.57367629 65.06838738 1103.11863456 58.89386463 1116.86157417 C57.65225006 1119.62476144 56.40589958 1122.38577621 55.15878773 1125.14648628 C51.52599834 1133.19734823 47.90962792 1141.25434808 44.38119984 1149.35156441 C38.83650312 1162.06481801 33.05979634 1174.34303846 25.93198109 1186.24609566 C25.440667 1187.06769173 25.440667 1187.06769173 24.93942738 1187.9058857 C20.78940923 1194.84133339 16.610595 1201.75934366 12.39682484 1208.65625191 C11.43184071 1210.23611885 11.43184071 1210.23611885 10.44736195 1211.8479023 C8.93198109 1214.24609566 8.93198109 1214.24609566 7.93198109 1215.24609566 C-17.09841306 1216.92123143 -40.62285384 1208.8880884 -59.58437634 1192.44799995 C-74.57934509 1178.93933195 -83.29662478 1161.11992235 -86.06801891 1141.24609566 C-86.15803901 1138.71312709 -86.20361502 1136.20867522 -86.19566941 1133.67652947 C-86.19732019 1132.92977046 -86.19897097 1132.18301145 -86.20067177 1131.41362338 C-86.20499516 1128.90438782 -86.20219594 1126.39521099 -86.19944668 1123.88597393 C-86.20109639 1122.0638282 -86.20318269 1120.24168283 -86.20566678 1118.41953805 C-86.21124231 1113.38814871 -86.21055939 1108.35677635 -86.20888919 1103.3253849 C-86.2081593 1097.8606241 -86.21317821 1092.39586813 -86.21746421 1086.93110937 C-86.22505253 1076.08148878 -86.22723769 1065.2318731 -86.22779326 1054.38225013 C-86.22870609 1041.3909971 -86.2353712 1028.39974863 -86.24214009 1015.40849755 C-86.25796861 984.75175154 -86.26388962 954.09500582 -86.26854712 923.43825645 C-86.27093008 907.84117415 -86.27463351 892.24409228 -86.27858421 876.64701031 C-86.29124922 826.61860512 -86.30203289 776.59019995 -86.30542467 726.56179318 C-86.30558691 724.17048309 -86.30575247 721.779173 -86.30591906 719.38786291 C-86.30625286 714.5920361 -86.30658334 709.79620929 -86.30691361 705.00038248 C-86.30730051 699.38560984 -86.30769012 693.77083721 -86.30808468 688.15606457 C-86.3081971 686.54906968 -86.30830852 684.94207479 -86.30841893 683.3350799 C-86.31196814 631.72722508 -86.32704533 580.11938419 -86.35035668 528.51153468 C-86.36709961 491.43015043 -86.38257393 454.3487688 -86.38709164 417.26738071 C-86.38718512 416.50468525 -86.38727861 415.74198979 -86.38737493 414.95618234 C-86.38939404 398.21251547 -86.39055003 381.46884864 -86.39090351 364.72518166 C-86.39103968 358.7337922 -86.39124868 352.74240274 -86.39149677 346.75101329 C-86.39155833 345.26050552 -86.39161665 343.76999775 -86.39167171 342.27948998 C-86.39259131 318.53466667 -86.40255688 294.78985789 -86.4171292 271.04503936 C-86.43175023 247.12510745 -86.43678392 223.20519337 -86.42870966 199.28525778 C-86.42370521 184.44551898 -86.42671504 169.60584114 -86.44327475 154.76611023 C-86.45301248 145.29911527 -86.45185801 135.83216214 -86.44183852 126.36516757 C-86.43643783 120.97042669 -86.43576437 115.57580038 -86.44834724 110.1810689 C-86.45970994 105.26846998 -86.45713565 100.35607854 -86.44368017 95.44348669 C-86.44125455 93.68200142 -86.44380042 91.92050004 -86.45207664 90.15903254 C-86.511325 76.65581341 -85.67291939 63.36312422 -79.81801891 50.93359566 C-79.51428356 50.26827827 -79.21054821 49.60296089 -78.89760876 48.91748238 C-69.69371278 29.36573016 -52.40807798 13.45080868 -32.22426891 5.70312691 C-21.63485278 1.93513825 -11.22997583 -0.06810657 0 0 Z " fill="#026CB5" transform="translate(86.06801891326904,-0.2460956573486328)"/>
<path d="M0 0 C16.63898406 -0.09389571 33.27788074 -0.16419885 49.91706657 -0.20724869 C57.64483429 -0.22777849 65.37243635 -0.25571296 73.10009766 -0.30175781 C79.84410734 -0.3419221 86.58799693 -0.36750221 93.33212292 -0.37635398 C96.89536311 -0.38151933 100.45826006 -0.39345295 104.02138901 -0.42292023 C130.25460212 -0.63113727 154.11294089 1.64269196 175 19 C175.86238281 19.7115625 176.72476563 20.423125 177.61328125 21.15625 C193.41393393 34.77502196 203.4533111 53.20218003 206 74 C206.08838511 76.57435484 206.13575485 79.12046595 206.1276505 81.69376469 C206.12930128 82.44180178 206.13095206 83.18983887 206.13265286 83.96054376 C206.13696808 86.46810487 206.1341796 88.97560697 206.13142776 91.48316956 C206.13307786 93.30648078 206.13516434 95.12979165 206.13764787 96.95310193 C206.14321841 101.98306524 206.14254139 107.01301154 206.14087028 112.04297695 C206.1401399 117.50793025 206.14516043 122.97287872 206.1494453 128.43782997 C206.15703075 139.28570367 206.15921863 150.13357245 206.15977435 160.98144853 C206.16068745 173.97141639 206.16735337 186.96137968 206.17412117 199.95134557 C206.18994655 230.60379889 206.19587027 261.25625191 206.2005282 291.9087086 C206.20291142 307.50386162 206.20661489 323.09901421 206.2105653 338.6941669 C206.22322983 388.71838913 206.23401369 438.74261134 206.23740576 488.76683515 C206.237568 491.15774278 206.23773356 493.5486504 206.23790014 495.93955803 C206.23823394 500.73455938 206.23856442 505.52956072 206.2388947 510.32456207 C206.2392816 515.93834123 206.23967121 521.55212038 206.24006577 527.16589953 C206.24017818 528.77260852 206.2402896 530.37931752 206.24040002 531.98602651 C206.24394939 583.58712189 206.25902754 635.18820335 206.28233776 686.78929341 C206.29908072 723.86765131 206.31455499 760.94600657 206.31907272 798.02436829 C206.31916621 798.78699663 206.3192597 799.54962498 206.31935601 800.33536327 C206.32137512 817.07750737 206.32253112 833.81965143 206.3228846 850.56179565 C206.32302077 856.55261088 206.32322976 862.5434261 206.32347785 868.53424133 C206.32353941 870.02460184 206.32359773 871.51496235 206.3236528 873.00532287 C206.32457238 896.74732834 206.3345377 920.48931927 206.34911029 944.23131996 C206.36413806 968.81329858 206.3683124 993.39525683 206.36001733 1017.97723895 C206.35555675 1032.14913132 206.35943887 1046.32096408 206.37525584 1060.49284863 C206.38499356 1069.95833058 206.3838391 1079.4237707 206.37381961 1088.88925225 C206.36841893 1094.28311134 206.36774542 1099.67685585 206.38032833 1105.07070553 C206.39169104 1109.98249199 206.38911672 1114.89407092 206.37566125 1119.80585029 C206.37323564 1121.56703912 206.37578148 1123.32824406 206.38405773 1125.08941511 C206.44313058 1138.55033102 205.61338013 1151.8445236 199.8125 1164.25 C199.51134277 1164.91273926 199.21018555 1165.57547852 198.89990234 1166.25830078 C195.9975519 1172.41032968 192.34248972 1177.76466192 188 1183 C187.30003906 1183.86238281 186.60007812 1184.72476562 185.87890625 1185.61328125 C171.14183907 1202.92473807 150.18176747 1212.07223792 128 1215 C124.05333989 1215.24564024 120.12612463 1215.25484222 116.17285156 1215.22705078 C114.50236252 1215.22748886 114.50236252 1215.22748886 112.79812622 1215.22793579 C109.16220977 1215.22655616 105.52650511 1215.21105992 101.890625 1215.1953125 C99.35186881 1215.1915775 96.81311118 1215.18873283 94.27435303 1215.18673706 C88.30358704 1215.17991314 82.33288761 1215.16419323 76.36215568 1215.14403808 C69.55669699 1215.12157096 62.75123448 1215.11065865 55.94574785 1215.10064721 C41.96379088 1215.07982334 27.98189954 1215.04471543 14 1215 C13.45020393 1209.74937991 12.90359821 1204.4984399 12.35968018 1199.24720764 C12.1750462 1197.46873977 11.98960878 1195.69035509 11.80328369 1193.9120636 C8.71650672 1164.43521682 7.75194587 1135.29428401 8.07324219 1105.65209961 C8.2167744 1090.90615694 8.2167744 1090.90615694 6.53372192 1076.28717041 C4.54103407 1064.0142915 4.89826392 1051.53794332 4.98596573 1039.14760017 C5.00832457 1035.83427379 5.02218611 1032.52100743 5.03366089 1029.20762634 C5.06692227 1019.79580602 5.1083846 1010.38408388 5.17138672 1000.97241211 C5.20951792 995.18553869 5.23220255 989.39876489 5.24569321 983.61178398 C5.25362647 981.43418026 5.26705599 979.25658794 5.28662491 977.07905769 C6.12021903 944.04153514 6.12021903 944.04153514 -4.94140625 913.91015625 C-6.55256723 911.00293219 -6.50649305 908.15609072 -6.6953125 904.890625 C-6.81755679 902.7908042 -6.81755679 902.7908042 -8.9375 901.4375 C-9.9584375 900.7259375 -9.9584375 900.7259375 -11 900 C-11.66915946 897.99252163 -12.07566182 895.99632866 -12.48828125 893.921875 C-12.91306093 891.80766099 -12.91306093 891.80766099 -14.75 889.8125 C-15.1625 889.214375 -15.575 888.61625 -16 888 C-15.25 885.8125 -15.25 885.8125 -14 883 C-13.52710055 880.01167793 -13.24956558 877.01448948 -13 874 C-9.53219313 872.52366918 -6.16937981 871.5275406 -2.5 870.6875 C2.29516771 869.37914107 5.07193722 868.20909024 8 864 C13.42980368 850.90688037 15.26374995 836.11955484 12.1875 822.3125 C7.01617567 798.82498591 12.07985409 776.75983756 22 755 C23.578125 753.05859375 23.578125 753.05859375 25.25 751.4375 C33.67116949 742.19908622 37.43103296 729.74305283 41 718 C44.44372143 719.9834862 47.51262354 722.16145772 50.625 724.625 C59.66821442 731.2583134 70.1669323 735.67735687 80.53515625 739.84375 C91.11583657 744.12703655 97.08247332 748.42731763 102 759 C104.10159609 761.5095462 105.70239576 762.45301684 108.87890625 763.16796875 C109.63051025 763.33965576 110.38211426 763.51134277 111.15649414 763.68823242 C112.34746704 763.93536987 112.34746704 763.93536987 113.5625 764.1875 C114.37517334 764.35677002 115.18784668 764.52604004 116.02514648 764.70043945 C125.8306882 767.03739921 125.8306882 767.03739921 135.28125 764.77734375 C141.34597135 760.38457469 146.11221906 754.62046605 151 749 C153.31306128 746.56832019 155.66978125 744.28579995 158.20703125 742.08984375 C164.56061725 736.5560753 169.87974703 730.68477471 175 724 C175.67546875 723.16339844 176.3509375 722.32679688 177.046875 721.46484375 C177.67078125 720.65144531 178.2946875 719.83804688 178.9375 719 C179.48277344 718.29875 180.02804687 717.5975 180.58984375 716.875 C184.21607485 709.48190835 184.30803969 700.75579011 184.30078125 692.65625 C184.30615402 691.70024399 184.31152679 690.74423798 184.31706238 689.75926208 C184.32836423 686.67270352 184.32206711 683.5865599 184.3125 680.5 C184.31233887 679.44507355 184.31217773 678.39014709 184.31201172 677.30325317 C184.29279609 659.1621567 183.29061926 641.27051955 181.27539062 623.24584961 C180.81301272 617.79610295 180.9040591 612.83956865 182.0625 607.5 C185.6841597 586.49958474 177.92650626 562.21218127 168.875 543.390625 C157.78553568 520.25745301 157.78553568 520.25745301 162 508 C171.60110517 476.40926685 162.58013595 432.06395883 147.5 403.12109375 C146.07412837 400.68894292 144.56068974 398.34717906 143 396 C142.53980469 395.20980469 142.07960938 394.41960937 141.60546875 393.60546875 C137.46569601 386.72865619 132.37199188 383.49533499 125.515625 379.58203125 C120.19610014 376.5010021 115.77907381 373.18135772 111.27734375 368.99609375 C108.97656895 366.97946266 106.61065522 365.31449449 104.0625 363.625 C100.33069153 361.09885273 97.29683367 358.38527219 94.1875 355.125 C87.03390965 347.75870508 78.93657733 342.25574398 69.625 337.9375 C64.73073519 335.62756015 62.2282569 333.20534262 58.953125 328.9921875 C56.49501846 326.48491883 53.95484895 325.24378182 50.8125 323.6875 C40.56438965 318.51025394 32.52242784 311.12445104 27 301 C26.34 300.34 25.68 299.68 25 299 C24.71714633 296.53596541 24.53410066 294.15906314 24.4375 291.6875 C24.22854748 287.33361177 23.86183964 283.26423266 23 279 C23.27017161 276.65851268 23.61250787 274.32495277 24 272 C24.12818085 270.54194281 24.25302735 269.08358966 24.375 267.625 C25.39443438 258.90809733 27.87760883 253.65228847 33.93359375 247.26171875 C37.90829701 242.91133465 41.28618351 238.26741709 43.0625 232.625 C44.29184414 229.18283639 45.91732412 228.83492612 49 227 C51.87496079 222.87271388 51.87496079 222.87271388 53.30444336 218.13623047 C54.23557268 212.71633719 54.23557268 212.71633719 56.45141602 210.63989258 C58.3199955 209.47546011 60.21383966 208.47533473 62.1875 207.5 C72.08852819 202.0587047 76.69989327 196.2615962 81.53125 186.0078125 C82.89731308 183.2102897 84.40407973 180.63147298 86.0625 178 C99.46769927 155.95976328 105.96467672 127.31646139 100.1640625 101.97265625 C93.17721534 76.759531 78.93711652 56.48860111 62 37 C61.20207031 36.07703125 60.40414062 35.1540625 59.58203125 34.203125 C43.35026177 15.76428188 23.5282097 6.673469 0 1 C0 0.67 0 0.34 0 0 Z " fill="#EE3A39" transform="translate(661,0)"/>
<path d="M0 0 C0.66 0 1.32 0 2 0 C3.43774907 2.22501548 4.76168528 4.44642185 6.0625 6.75 C10.69519687 14.71656883 15.62858686 22.73428597 22.26171875 29.20703125 C24 31 24 31 24 33 C24.62140869 33.15629883 25.24281738 33.31259766 25.88305664 33.47363281 C29.26276167 35.9104816 29.23174819 39.53308153 29.87109375 43.421875 C31.63427306 52.83961284 34.23328605 61.77716994 37.26391602 70.85693359 C38.07517718 73.2879889 38.87167309 75.72352569 39.66601562 78.16015625 C40.18406991 79.73725071 40.70291987 81.31408408 41.22265625 82.890625 C41.45710953 83.6042218 41.69156281 84.3178186 41.93312073 85.05303955 C43.04229405 88.36873076 44.22818579 91.58889269 45.65014648 94.78417969 C47 98 47 98 47.375 101.5625 C48.00452036 105.02486196 48.40110549 105.77561188 50.625 108.25 C51.800625 109.61125 51.800625 109.61125 53 111 C51.63772905 115.08681286 49.70322524 115.57443282 46 117.6875 C39.50457925 121.51212395 32.91549574 125.76654043 28.57421875 132.0703125 C26.61921195 134.46677245 24.73800817 135.34641748 21.9375 136.625 C18.16038831 138.35946928 18.16038831 138.35946928 15 141 C13.36463871 141.32819429 11.71577298 141.59157806 10.0625 141.8125 C5.82540724 142.51150381 5.82540724 142.51150381 2.875 145.625 C2.441875 146.800625 2.441875 146.800625 2 148 C-1.41437991 146.68771164 -4.63624609 145.19698288 -7.875 143.5 C-10.96188096 141.90632921 -13.17467795 140.96687142 -16.625 140.3125 C-21.19819901 138.53403372 -22.93667974 135.68898193 -25.80078125 131.80078125 C-28.8613693 127.90301636 -32.43679539 124.65623311 -36.09375 121.32421875 C-38.3850381 118.53053756 -38.13321746 117.49140749 -38 114 C-38.95185545 112.63188123 -39.95854277 111.30120891 -41 110 C-44.1973868 102.91261738 -46.68661061 95.66619677 -48 88 C-48.26490234 86.61361328 -48.26490234 86.61361328 -48.53515625 85.19921875 C-49.41475983 79.14547649 -49.19575172 73.09987612 -49 67 C-48.99097656 66.00226563 -48.98195312 65.00453125 -48.97265625 63.9765625 C-48.73326897 61.17951113 -48.44845168 59.41251855 -47 57 C-44.16493464 55.29805789 -41.36375308 54.26567022 -38.23828125 53.19140625 C-26.2242531 48.77128733 -19.48388333 39.51170671 -14.24609375 28.33203125 C-13.02980231 26.05577423 -11.7577217 24.43650863 -10 22.5625 C-4.310532 16.34514321 -1.68471011 8.11723964 0 0 Z " fill="#016CB5" transform="translate(224,321)"/>
<path d="M0 0 C5.96098032 5.52090795 10.64047314 12.54968618 11.30859375 20.8046875 C10.96828357 29.90025042 4.74906086 37.94635466 -0.4609375 45.01953125 C-3.14253098 48.90462855 -5.29678305 53.06513455 -7.48046875 57.24609375 C-9.25390625 59.6171875 -9.25390625 59.6171875 -11.96484375 60.45703125 C-12.72023438 60.50988281 -13.475625 60.56273437 -14.25390625 60.6171875 C-18.14343142 56.81092434 -21.22550852 53.4792604 -21.46484375 47.74609375 C-20.59348302 38.95180491 -14.81260694 31.35555096 -10.13964844 24.12548828 C-7.30047089 19.66434056 -5.41769092 15.78576057 -4.25390625 10.6171875 C-16.84102252 12.20081601 -25.75094521 18.60615891 -35.25390625 26.6171875 C-36.09179688 27.26171875 -36.9296875 27.90625 -37.79296875 28.5703125 C-44.98590881 34.55301185 -51.98319457 43.65638634 -53.6953125 53.03515625 C-53.97270516 58.37720198 -52.88592424 61.55278642 -49.25390625 65.6171875 C-42.63788103 71.9923724 -34.88182096 76.32192353 -26.85522461 80.67260742 C-21.66281526 83.54568791 -17.98275871 86.15948259 -15.25390625 91.6171875 C-14.47850443 98.13056277 -17.10700303 102.62782858 -20.796875 107.765625 C-24.69651681 112.56655702 -28.52933509 115.34980834 -34.25390625 117.6171875 C-34.98351562 117.97296875 -35.713125 118.32875 -36.46484375 118.6953125 C-46.92409385 122.15243158 -60.4647768 120.0161001 -70.25390625 115.6171875 C-78.98384524 111.08865943 -86.21391319 105.43472725 -93.25390625 98.6171875 C-93.82367188 98.12089844 -94.3934375 97.62460938 -94.98046875 97.11328125 C-97.34081047 95.01007173 -98.21037202 94.00899556 -98.56640625 90.8046875 C-98.41171875 89.721875 -98.41171875 89.721875 -98.25390625 88.6171875 C-93.22900761 86.10473818 -85.30757597 86.8433123 -79.97265625 88.1953125 C-74.57158613 90.71276044 -69.99105499 94.81441591 -65.296875 98.42578125 C-58.78437395 103.11578521 -51.99915493 106.76443476 -43.87890625 106.7421875 C-42.94304687 106.74476563 -42.0071875 106.74734375 -41.04296875 106.75 C-38.34660878 106.62160191 -35.88119116 106.21907459 -33.25390625 105.6171875 C-32.92390625 103.3071875 -32.59390625 100.9971875 -32.25390625 98.6171875 C-37.56683548 94.63791194 -42.89411425 90.79672648 -48.52929688 87.29174805 C-58.70315601 80.96088352 -71.03857641 72.87707827 -74.25390625 60.6171875 C-75.79201851 48.71998179 -71.1159645 38.12951877 -64.25390625 28.6171875 C-51.77597922 13.11872721 -21.06723414 -15.50478354 0 0 Z " fill="#FAFCFD" transform="translate(210.25390625,79.3828125)"/>
<path d="M0 0 C1.10819092 -0.03299194 1.10819092 -0.03299194 2.23876953 -0.06665039 C7.39562936 -0.04705836 10.27062541 1.22566057 14.25 4.4375 C16.84058632 7.09625964 18.1409323 8.47770422 18.5625 12.1875 C18.25 14.4375 18.25 14.4375 17.25 15.4375 C15.08462603 15.5495021 12.91736212 15.62480771 10.75 15.6875 C8.47186153 15.84895747 6.19761084 16.03922112 3.92236328 16.23730469 C2.04575184 16.37788768 0.16549765 16.47357269 -1.71533203 16.53613281 C-9.41819079 16.85073125 -16.99983228 17.44516953 -23.75 21.4375 C-29.97247446 28.20298211 -33.53981993 36.64912264 -37.16894531 44.99658203 C-39.64073929 50.37605459 -42.659591 55.389755 -45.75 60.4375 C-44.76 60.1075 -43.77 59.7775 -42.75 59.4375 C-40.48236426 59.29101918 -38.20967634 59.2165374 -35.9375 59.1875 C-34.73480469 59.16171875 -33.53210938 59.1359375 -32.29296875 59.109375 C-27.20607568 59.58048748 -23.96797655 61.21952345 -20.375 64.8125 C-18.59716881 67.68438115 -18.37189357 69.12906877 -18.75 72.4375 C-21.95200664 74.28182553 -24.66744656 74.83417922 -28.328125 75.21875 C-29.40707031 75.33863281 -30.48601562 75.45851563 -31.59765625 75.58203125 C-32.72042969 75.69933594 -33.84320313 75.81664062 -35 75.9375 C-37.21408031 76.17205333 -39.42764502 76.41153283 -41.640625 76.65625 C-42.62063477 76.75873047 -43.60064453 76.86121094 -44.61035156 76.96679688 C-46.16447754 77.19979492 -46.16447754 77.19979492 -47.75 77.4375 C-48.40961227 77.50652023 -49.06922455 77.57554047 -49.74882507 77.64665222 C-52.85630983 78.14006223 -55.00828239 78.58294862 -57.11935425 81.01516724 C-58.35798136 83.1451246 -59.37491766 85.29379307 -60.36328125 87.55078125 C-60.74437546 88.35734665 -61.12546967 89.16391205 -61.51811218 89.99491882 C-62.72701872 92.56818693 -63.89525989 95.15760475 -65.0625 97.75 C-66.25640177 100.3268721 -67.45823044 102.89994469 -68.66044617 105.47294617 C-69.40408966 107.07250658 -70.14124129 108.67510597 -70.8709259 110.28108215 C-74.46952331 118.1809777 -74.46952331 118.1809777 -76.75 121.4375 C-79.1875 122.0625 -79.1875 122.0625 -81.75 121.4375 C-85.05534324 118.04034166 -86.54820456 115.29401809 -87.0625 110.5625 C-86.39586347 81.41230247 -60.99689673 48.23078152 -46.22363281 23.94165039 C-44.96754918 21.80718224 -43.82139227 19.66891315 -42.75 17.4375 C-43.348125 17.23125 -43.94625 17.025 -44.5625 16.8125 C-47.63947932 14.87839871 -48.47563973 12.79107965 -49.75 9.4375 C-49.50729722 7.19249925 -49.34515008 6.03265008 -47.75 4.4375 C-44.76850122 4.27371472 -41.7963427 4.15665437 -38.8125 4.0625 C-31.95178082 3.79824889 -25.36697728 3.16458039 -18.625 1.875 C-12.40121218 0.72434306 -6.33260629 0.08887186 0 0 Z " fill="#FBFCFD" transform="translate(297.75,76.5625)"/>
<path d="M0 0 C0.66 0 1.32 0 2 0 C3.43774907 2.22501548 4.76168528 4.44642185 6.0625 6.75 C10.69519687 14.71656883 15.62858686 22.73428597 22.26171875 29.20703125 C24 31 24 31 24 33 C24.62140869 33.15629883 25.24281738 33.31259766 25.88305664 33.47363281 C29.26276167 35.9104816 29.23174819 39.53308153 29.87109375 43.421875 C31.63427306 52.83961284 34.23328605 61.77716994 37.26391602 70.85693359 C38.07517718 73.2879889 38.87167309 75.72352569 39.66601562 78.16015625 C40.18406991 79.73725071 40.70291987 81.31408408 41.22265625 82.890625 C41.45710953 83.6042218 41.69156281 84.3178186 41.93312073 85.05303955 C43.04229405 88.36873076 44.22818579 91.58889269 45.65014648 94.78417969 C47 98 47 98 47.375 101.5625 C48.00452036 105.02486196 48.40110549 105.77561188 50.625 108.25 C51.800625 109.61125 51.800625 109.61125 53 111 C51.63772905 115.08681286 49.70322524 115.57443282 46 117.6875 C39.50457925 121.51212395 32.91549574 125.76654043 28.57421875 132.0703125 C26.61921195 134.46677245 24.73800817 135.34641748 21.9375 136.625 C18.16038831 138.35946928 18.16038831 138.35946928 15 141 C13.36463871 141.32819429 11.71577298 141.59157806 10.0625 141.8125 C5.82540724 142.51150381 5.82540724 142.51150381 2.875 145.625 C2.441875 146.800625 2.441875 146.800625 2 148 C-1.41437991 146.68771164 -4.63624609 145.19698288 -7.875 143.5 C-10.96188096 141.90632921 -13.17467795 140.96687142 -16.625 140.3125 C-21.19819901 138.53403372 -22.93667974 135.68898193 -25.80078125 131.80078125 C-28.8613693 127.90301636 -32.43679539 124.65623311 -36.09375 121.32421875 C-38.3850381 118.53053756 -38.13321746 117.49140749 -38 114 C-38.95185545 112.63188123 -39.95854277 111.30120891 -41 110 C-44.1973868 102.91261738 -46.68661061 95.66619677 -48 88 C-48.26490234 86.61361328 -48.26490234 86.61361328 -48.53515625 85.19921875 C-49.41475983 79.14547649 -49.19575172 73.09987612 -49 67 C-48.99097656 66.00226563 -48.98195312 65.00453125 -48.97265625 63.9765625 C-48.73326897 61.17951113 -48.44845168 59.41251855 -47 57 C-44.16493464 55.29805789 -41.36375308 54.26567022 -38.23828125 53.19140625 C-26.2242531 48.77128733 -19.48388333 39.51170671 -14.24609375 28.33203125 C-13.02980231 26.05577423 -11.7577217 24.43650863 -10 22.5625 C-4.310532 16.34514321 -1.68471011 8.11723964 0 0 Z M2 20 C0.57761843 21.7449418 0.57761843 21.7449418 -0.8125 24 C-1.34488281 24.82628906 -1.87726563 25.65257812 -2.42578125 26.50390625 C-2.94527344 27.32761719 -3.46476562 28.15132813 -4 29 C-4.42667969 29.66902344 -4.85335937 30.33804687 -5.29296875 31.02734375 C-7.0538844 33.81403551 -8.77728914 36.60559026 -10.3984375 39.4765625 C-16.55986556 50.26721164 -24.43035295 57.07763474 -36.0625 61.6875 C-37.031875 62.120625 -38.00125 62.55375 -39 63 C-42.3082683 72.92480491 -40.69057864 86.43075262 -37 96 C-36.60167969 97.051875 -36.20335937 98.10375 -35.79296875 99.1875 C-33.61332222 104.87043657 -33.61332222 104.87043657 -30.46875 110.03515625 C-29 112 -29 112 -28.0859375 114.4375 C-26.7550463 117.57802025 -24.95725548 119.52052574 -22.625 122 C-20.29219261 124.49665005 -18.06643276 126.91005824 -16.03515625 129.66015625 C-12.54881645 133.66844328 -8.10779024 134.94656158 -3 136 C2.70097791 135.78384918 7.91541107 133.45149823 13 131 C13.69867188 130.67386719 14.39734375 130.34773438 15.1171875 130.01171875 C20.65729393 127.22249561 24.4659612 123.70774727 28.71484375 119.2265625 C32.12368054 115.90513178 35.96518545 113.48338081 40 111 C38.78653304 100.52134079 35.54751915 90.97307622 32.125 81.0625 C31.06194884 77.95029056 30.00339983 74.83655638 28.9453125 71.72265625 C28.69048599 70.97386703 28.43565948 70.22507782 28.17311096 69.45359802 C22.05026012 51.40517834 22.05026012 51.40517834 21.3125 44.8125 C20.32688905 39.3652395 17.18479932 36.39443318 13.390625 32.5390625 C10.28385818 29.23939186 7.87647228 25.62578483 5.41015625 21.8359375 C4.94480469 21.23007812 4.47945312 20.62421875 4 20 C3.34 20 2.68 20 2 20 Z " fill="#FCFDFE" transform="translate(224,321)"/>
<path d="M0 0 C2.4375 0.625 2.4375 0.625 4.25 2.4375 C7.86316236 12.13598845 4.41085584 20.60786924 0.4375 29.625 C-1.92004635 34.31099555 -4.47267705 38.87729501 -7.0625 43.4375 C-7.77259226 44.70352636 -8.48164042 45.97013885 -9.18969727 47.23730469 C-10.26769261 49.166349 -11.34620708 51.09507454 -12.4278717 53.02206421 C-15.8436203 59.10817238 -19.18305825 65.23450475 -22.5 71.375 C-23.02634033 72.34904785 -23.55268066 73.3230957 -24.0949707 74.32666016 C-25.5866784 77.09142055 -27.07543335 79.85774094 -28.5625 82.625 C-29.02333984 83.48206543 -29.48417969 84.33913086 -29.95898438 85.22216797 C-31.22644048 87.58361446 -32.4894148 89.94737984 -33.75 92.3125 C-34.11279053 92.98958008 -34.47558105 93.66666016 -34.84936523 94.36425781 C-36.62907378 97.72069917 -38.23480982 101.06406685 -39.5625 104.625 C-38.28375 104.315625 -37.005 104.00625 -35.6875 103.6875 C-28.09192004 102.02449259 -20.57904065 101.53288129 -12.8125 101.3125 C-10.96398437 101.25642578 -10.96398437 101.25642578 -9.078125 101.19921875 C-4.11694611 101.80007264 -1.11261645 104.023213 2.3125 107.5625 C3.6826313 110.07440739 3.67247727 111.80527277 3.4375 114.625 C0.91201103 115.88774449 -1.44446471 115.90326949 -4.22583008 116.11962891 C-14.46995228 116.94316168 -24.16965428 119.00238667 -34.10766602 121.5925293 C-35.12014404 121.85332275 -36.13262207 122.11411621 -37.17578125 122.3828125 C-38.07079346 122.6214502 -38.96580566 122.86008789 -39.88793945 123.10595703 C-42.88028079 123.68667065 -45.52160879 123.84713919 -48.5625 123.625 C-53.24750531 119.9439244 -57.02811193 115.25523121 -57.90966797 109.26660156 C-58.1607401 101.27686245 -55.89287786 95.58080801 -52.375 88.5 C-51.83544678 87.3761792 -51.29589355 86.2523584 -50.73999023 85.09448242 C-49.04295994 81.5895704 -47.31009202 78.10494912 -45.5625 74.625 C-44.75329102 73.00827393 -44.75329102 73.00827393 -43.92773438 71.35888672 C-34.24262501 52.13353073 -23.79229967 33.32758161 -12.5 15 C-11.96375 14.12891602 -11.4275 13.25783203 -10.875 12.36035156 C-3.73571155 0.91114916 -3.73571155 0.91114916 0 0 Z " fill="#FAFCFD" transform="translate(348.5625,75.375)"/>
</svg>
